<svg width="148" height="148" viewBox="0 0 148 148" fill="none" xmlns="http://www.w3.org/2000/svg">
<circle cx="74" cy="74" r="74" fill="url(#paint0_linear_6_81)"/>
<mask id="path-2-inside-1_6_81" fill="white">
<path fill-rule="evenodd" clip-rule="evenodd" d="M74 114C96.0914 114 114 96.0914 114 74C114 51.9086 96.0914 34 74 34C51.9086 34 34 51.9086 34 74C34 96.0914 51.9086 114 74 114ZM73 54C70.7909 54 69 55.7909 69 58V71H57C54.7909 71 53 72.7909 53 75C53 77.2091 54.7909 79 57 79H69V91C69 93.2091 70.7909 95 73 95C75.2091 95 77 93.2091 77 91V79H90C92.2091 79 94 77.2091 94 75C94 72.7909 92.2091 71 90 71H77V58C77 55.7909 75.2091 54 73 54Z"/>
</mask>
<path fill-rule="evenodd" clip-rule="evenodd" d="M74 114C96.0914 114 114 96.0914 114 74C114 51.9086 96.0914 34 74 34C51.9086 34 34 51.9086 34 74C34 96.0914 51.9086 114 74 114ZM73 54C70.7909 54 69 55.7909 69 58V71H57C54.7909 71 53 72.7909 53 75C53 77.2091 54.7909 79 57 79H69V91C69 93.2091 70.7909 95 73 95C75.2091 95 77 93.2091 77 91V79H90C92.2091 79 94 77.2091 94 75C94 72.7909 92.2091 71 90 71H77V58C77 55.7909 75.2091 54 73 54Z" fill="url(#paint1_linear_6_81)"/>
<path d="M69 71V72H70V71H69ZM57 71V70H57L57 71ZM69 79H70V78H69V79ZM77 79V78H76V79H77ZM90 79V80V79ZM77 71H76V72H77V71ZM113 74C113 95.5391 95.5391 113 74 113V115C96.6437 115 115 96.6437 115 74H113ZM74 35C95.5391 35 113 52.4609 113 74H115C115 51.3563 96.6437 33 74 33V35ZM35 74C35 52.4609 52.4609 35 74 35V33C51.3563 33 33 51.3563 33 74H35ZM74 113C52.4609 113 35 95.5391 35 74H33C33 96.6437 51.3563 115 74 115V113ZM70 58C70 56.3431 71.3431 55 73 55V53C70.2386 53 68 55.2386 68 58H70ZM70 71V58H68V71H70ZM57 72H69V70H57V72ZM54 75C54 73.3431 55.3431 72 57 72L57 70C54.2386 70 52 72.2386 52 75H54ZM57 78C55.3431 78 54 76.6569 54 75H52C52 77.7614 54.2386 80 57 80V78ZM69 78H57V80H69V78ZM70 91V79H68V91H70ZM73 94C71.3431 94 70 92.6569 70 91H68C68 93.7614 70.2386 96 73 96V94ZM76 91C76 92.6569 74.6569 94 73 94V96C75.7614 96 78 93.7614 78 91H76ZM76 79V91H78V79H76ZM90 78H77V80H90V78ZM93 75C93 76.6568 91.6569 78 90 78V80C92.7614 80 95 77.7614 95 75H93ZM90 72C91.6569 72 93 73.3431 93 75H95C95 72.2386 92.7614 70 90 70V72ZM77 72H90V70H77V72ZM76 58V71H78V58H76ZM73 55C74.6569 55 76 56.3431 76 58H78C78 55.2386 75.7614 53 73 53V55Z" fill="#8C6DE3" mask="url(#path-2-inside-1_6_81)"/>
<defs>
<linearGradient id="paint0_linear_6_81" x1="74" y1="-31.5" x2="74" y2="127.5" gradientUnits="userSpaceOnUse">
<stop stop-color="#6F6690"/>
<stop offset="1" stop-color="#2F235E"/>
</linearGradient>
<linearGradient id="paint1_linear_6_81" x1="74" y1="59" x2="74" y2="192" gradientUnits="userSpaceOnUse">
<stop stop-color="#7B57E2"/>
<stop offset="1" stop-color="white" stop-opacity="0"/>
</linearGradient>
</defs>
</svg>
